<svg width="52" height="52" viewBox="0 0 52 52" fill="none" xmlns="http://www.w3.org/2000/svg">
<path opacity="0.4" d="M19.335 0.490004L5.12665 5.72583C2.41415 6.71708 0.192474 9.89415 0.192474 12.7408V33.3283C0.192474 35.3871 1.56166 38.1067 3.24083 39.3267L17.4492 49.7729C19.955 51.6283 24.0625 51.6283 26.5683 49.7729L40.7767 39.3267C42.4558 38.0813 43.825 35.3871 43.825 33.3283V12.7408C43.825 9.89415 41.6033 6.71708 38.8908 5.72583L24.6825 0.490004C23.21 -0.0437464 20.8075 -0.0437464 19.335 0.490004Z" fill="#003BB3"/>
<path d="M44.755 12.1816H27.0592C26.5425 12.1816 26.0516 12.2071 25.5866 12.2071C21.1433 12.4612 19.955 14.0625 19.955 19.0442V21.0619C19.955 21.5478 20.3553 21.9417 20.8492 21.9417H50.9391C51.433 21.9417 51.8333 21.5478 51.8333 21.0619V19.0442C51.8333 13.5542 50.4125 12.1816 44.755 12.1816Z" fill="#003BB3"/>
<path d="M20.875 24.7375C20.3812 24.7375 19.9808 25.1314 19.9808 25.6173V31.9558C19.9808 37.4458 21.4017 38.8437 27.0592 38.8437H44.755C50.3091 38.8437 51.7816 37.5221 51.8333 32.2608V25.6173C51.8333 25.1314 51.4329 24.7375 50.9391 24.7375H20.875ZM29.2808 34.3196H26.0517C25.2767 34.3196 24.6566 33.7096 24.6566 32.9471C24.6566 32.1846 25.2767 31.5746 26.0517 31.5746H29.2808C30.0558 31.5746 30.6758 32.1846 30.6758 32.9471C30.6758 33.7096 30.0558 34.3196 29.2808 34.3196ZM39.7433 34.3196H33.3108C32.5358 34.3196 31.9158 33.7096 31.9158 32.9471C31.9158 32.1846 32.5358 31.5746 33.3108 31.5746H39.7433C40.5183 31.5746 41.1383 32.1846 41.1383 32.9471C41.1641 33.7096 40.5183 34.3196 39.7433 34.3196Z" fill="#003BB3"/>
</svg>
