<svg width="61" height="61" viewBox="0 0 61 61" fill="none" xmlns="http://www.w3.org/2000/svg">
<path opacity="0.4" d="M19.4438 53.1462C19.3675 53.1462 19.2658 53.1971 19.1896 53.1971C14.2588 50.7571 10.2429 46.7158 7.7775 41.785C7.7775 41.7087 7.82833 41.6071 7.82833 41.5308C10.9292 42.4458 14.1317 43.1321 17.3088 43.6658C17.8679 46.8683 18.5288 50.0454 19.4438 53.1462Z" fill="white"/>
<path opacity="0.4" d="M53.2225 41.8104C50.7062 46.8683 46.5125 50.9604 41.4037 53.4258C42.3696 50.1979 43.1829 46.9446 43.7167 43.6658C46.9192 43.1321 50.0708 42.4458 53.1717 41.5308C53.1462 41.6325 53.2225 41.7342 53.2225 41.8104Z" fill="white"/>
<path opacity="0.4" d="M53.4258 19.5962C50.2233 18.6304 46.9954 17.8425 43.7167 17.2833C43.1829 14.0046 42.395 10.7512 41.4037 7.57416C46.665 10.0904 50.9096 14.335 53.4258 19.5962Z" fill="white"/>
<path opacity="0.4" d="M19.4437 7.85375C18.5287 10.9546 17.8679 14.1062 17.3342 17.3087C14.0554 17.8171 10.8021 18.6304 7.57417 19.5962C10.0396 14.4875 14.1317 10.2937 19.1896 7.7775C19.2658 7.7775 19.3675 7.85375 19.4437 7.85375Z" fill="white"/>
<path d="M39.3704 16.7496C33.4738 16.0888 27.5263 16.0888 21.6296 16.7496C22.265 13.2675 23.0783 9.78543 24.2221 6.43043C24.2729 6.22709 24.2475 6.07459 24.2729 5.87126C26.2808 5.38834 28.3396 5.08334 30.5 5.08334C32.635 5.08334 34.7192 5.38834 36.7017 5.87126C36.7271 6.07459 36.7271 6.22709 36.7779 6.43043C37.9217 9.81084 38.735 13.2675 39.3704 16.7496Z" fill="white"/>
<path d="M16.7496 39.3704C13.2421 38.735 9.78542 37.9217 6.43042 36.7779C6.22708 36.7271 6.07458 36.7525 5.87125 36.7271C5.38833 34.7192 5.08333 32.6604 5.08333 30.5C5.08333 28.365 5.38833 26.2808 5.87125 24.2983C6.07458 24.2729 6.22708 24.2729 6.43042 24.2221C9.81083 23.1037 13.2421 22.265 16.7496 21.6296C16.1142 27.5262 16.1142 33.4737 16.7496 39.3704Z" fill="white"/>
<path d="M55.9167 30.5C55.9167 32.6604 55.6117 34.7192 55.1287 36.7271C54.9254 36.7525 54.7729 36.7271 54.5696 36.7779C51.1892 37.8962 47.7325 38.735 44.2504 39.3704C44.9112 33.4737 44.9112 27.5262 44.2504 21.6296C47.7325 22.265 51.2146 23.0783 54.5696 24.2221C54.7729 24.2729 54.9254 24.2983 55.1287 24.2983C55.6117 26.3062 55.9167 28.365 55.9167 30.5Z" fill="white"/>
<path d="M39.3704 44.2504C38.735 47.7579 37.9217 51.2146 36.7779 54.5696C36.7271 54.7729 36.7271 54.9254 36.7017 55.1288C34.7192 55.6117 32.635 55.9167 30.5 55.9167C28.3396 55.9167 26.2808 55.6117 24.2729 55.1288C24.2475 54.9254 24.2729 54.7729 24.2221 54.5696C23.1038 51.1892 22.265 47.7579 21.6296 44.2504C24.5779 44.5808 27.5263 44.8096 30.5 44.8096C33.4738 44.8096 36.4475 44.5808 39.3704 44.2504Z" fill="white"/>
<path d="M40.0651 40.0651C33.7082 40.8672 27.2918 40.8672 20.9349 40.0651C20.1328 33.7082 20.1328 27.2918 20.9349 20.9349C27.2918 20.1328 33.7082 20.1328 40.0651 20.9349C40.8672 27.2918 40.8672 33.7082 40.0651 40.0651Z" fill="white"/>
</svg>
